<svg width="12" height="12" viewBox="0 0 12 12" fill="none" xmlns="http://www.w3.org/2000/svg">
<path d="M7.14126 0.113287C7.02797 0.0713287 6.91469 0.041958 6.7972 0.041958V0.0587413C6.53706 0.0251748 6.27273 0 6 0C5.6979 0 5.40839 0.0293706 5.11888 0.0713287V0.041958C4.95105 0.041958 4.79161 0.0839161 4.63636 0.163636C1.98462 0.784615 0 3.16364 0 6C0 8.83636 1.9972 11.2322 4.66154 11.8448C4.80839 11.9203 4.96364 11.958 5.11888 11.958V11.9287C5.40839 11.9706 5.6979 12 6 12C6.27273 12 6.53706 11.9748 6.7972 11.9413V11.958C6.91888 11.958 7.03636 11.9287 7.15385 11.8867C9.91049 11.3455 12 8.91189 12 6C12 3.08811 9.90629 0.646154 7.14126 0.113287ZM3.95245 0.813986C3.58741 1.34266 3.29371 2.11469 3.09231 3.06294C2.12727 3.27692 1.33007 3.59161 0.805594 3.97762C1.36783 2.53427 2.51329 1.38462 3.95245 0.813986ZM0.490909 6.83916C0.448951 6.56643 0.41958 6.28531 0.41958 6C0.41958 5.6979 0.448951 5.40839 0.495105 5.11888H0.503497C0.503497 4.52727 1.45594 3.89371 3.00839 3.52028C2.88252 4.26713 2.81119 5.10629 2.81119 6C2.81119 6.89371 2.88252 7.6993 3.00839 8.43776C1.45594 8.06434 0.503497 7.43077 0.503497 6.83916H0.490909ZM0.784615 7.96364C1.31329 8.35804 2.11469 8.67692 3.09231 8.8951C3.2979 9.86434 3.6 10.6573 3.97343 11.1944C2.5049 10.6196 1.33846 9.44056 0.78042 7.96364H0.784615ZM5.79021 11.5678C5.45874 11.5552 5.13566 11.5175 4.82098 11.4503C4.33007 11.186 3.85175 10.2923 3.54545 8.97902C4.22937 9.1007 4.98881 9.17203 5.79021 9.18042V11.5636V11.5678ZM5.79021 8.76503C4.93007 8.75245 4.14126 8.66853 3.45315 8.53427C3.31468 7.79161 3.23077 6.93566 3.23077 6C3.23077 5.06434 3.31468 4.17063 3.45315 3.42378C4.14126 3.28951 4.93007 3.20559 5.79021 3.19301V8.76503ZM5.79021 2.77343C4.98881 2.78601 4.22937 2.85315 3.54545 2.97483C3.84336 1.68671 4.30909 0.822378 4.8 0.553846C5.11888 0.482517 5.45035 0.444755 5.79021 0.432168V2.77343ZM11.1944 3.97762C10.649 3.57902 9.81818 3.25175 8.80699 3.04196C8.5972 2.08112 8.29091 1.29231 7.91329 0.763636C9.41538 1.31329 10.6154 2.49231 11.1944 3.97762ZM6.20979 0.432168C6.49091 0.444755 6.76783 0.46993 7.03636 0.52028C7.53986 0.738461 8.03916 1.62378 8.35804 2.95804C7.6993 2.84895 6.97343 2.78601 6.20979 2.77343V0.432168ZM6.20979 3.19301C7.03217 3.20559 7.78741 3.28112 8.45035 3.4028C8.5972 4.16224 8.68531 5.03497 8.68531 6C8.68531 6.96503 8.6014 7.80839 8.46713 8.55105C7.7958 8.67692 7.03636 8.75245 6.20979 8.76503V3.19301ZM7.04476 11.4797C6.77203 11.5301 6.4951 11.5594 6.20979 11.572V9.18881C6.98182 9.18042 7.71189 9.11329 8.37482 9C8.06433 10.3678 7.56084 11.2615 7.04476 11.4797ZM7.93846 11.228C8.31608 10.6951 8.62657 9.8979 8.82797 8.91189C9.84336 8.6979 10.6741 8.36643 11.2154 7.96364C10.6448 9.46993 9.44475 10.6657 7.93427 11.228H7.93846ZM11.4965 6.83916C11.4965 7.43916 10.5105 8.08531 8.91189 8.45874C9.03357 7.71608 9.10489 6.88951 9.10489 6C9.10489 5.11049 9.02937 4.25455 8.8951 3.4951C10.5021 3.86434 11.4965 4.51469 11.4965 5.11888H11.5049C11.551 5.40839 11.5804 5.6979 11.5804 6C11.5804 6.3021 11.551 6.56643 11.5091 6.83916H11.4965Z" fill="white"/>
</svg>
