<svg width="161" height="56" viewBox="0 0 161 56" fill="none" xmlns="http://www.w3.org/2000/svg">
<g clip-path="url(#clip0_748:885)">
<path d="M61.0855 43.1404C57.6984 44.9597 40.1201 52.3838 36.3334 54.4216C32.5468 56.4593 30.5189 56.4014 27.5573 54.9477C24.5957 53.4941 5.95352 45.7088 2.57508 44.0501C0.872828 43.2296 0.0043335 42.5296 0.0043335 41.8741V35.2704C0.0043335 35.2704 24.3569 29.8438 28.2868 28.3813C32.2168 26.9188 33.576 26.8831 36.9153 28.1405C40.2547 29.3979 60.2735 33.1078 63.5781 34.3385V40.8485C63.5781 41.5263 62.8182 42.1862 61.0855 43.136V43.1404Z" fill="#A32422"/>
<path d="M61.0855 36.5679C57.6984 38.3782 40.1201 45.8024 36.3335 47.8044C32.5468 49.8065 30.5189 49.7887 27.5573 48.3395C24.5958 46.8903 5.95352 39.105 2.57508 37.4597C-0.803365 35.8143 -0.868502 34.6639 2.4448 33.3351C5.75811 32.0064 24.3569 24.5287 28.2868 23.0572C32.2168 21.5858 33.576 21.5546 36.9153 22.8165C40.2547 24.0783 57.7592 31.2171 61.0465 32.4612C64.3337 33.7052 64.4857 34.7263 61.0855 36.5322V36.5679Z" fill="#DC382C"/>
<path d="M61.0855 32.3854C57.6984 34.2002 40.1201 41.6199 36.3334 43.622C32.5468 45.6241 30.5362 45.6062 27.5747 44.1482C24.6131 42.6901 5.95352 34.9493 2.57508 33.2951C0.872828 32.4657 0.0043335 31.7701 0.0043335 31.1102V24.5288C0.0043335 24.5288 24.3569 19.0844 28.2868 17.6218C32.2168 16.1593 33.576 16.1192 36.9153 17.3944C40.2547 18.6697 60.2735 22.3439 63.5781 23.5835V30.0935C63.5781 30.7713 62.8182 31.4491 61.0855 32.3854Z" fill="#A32422"/>
<path d="M61.0855 25.7817C57.6984 27.601 40.1201 35.0207 36.3335 37.0227C32.5468 39.0248 30.5189 39.0114 27.5573 37.5578C24.5957 36.1042 5.95352 28.3501 2.57507 26.6913C-0.803369 25.0326 -0.864163 23.9045 2.4448 22.5757C5.75376 21.247 24.3569 13.7515 28.2868 12.3201C32.2168 10.8888 33.576 10.7996 36.9153 12.0437C40.2547 13.2877 57.7592 20.4889 61.0465 21.6973C64.3337 22.9057 64.4857 23.9669 61.0855 25.7683V25.7817Z" fill="#DC382C"/>
<path d="M61.0855 21.2246C57.6984 23.0439 40.1201 30.468 36.3334 32.4657C32.5468 34.4633 30.5362 34.4499 27.5747 33.0007C24.6131 31.5516 5.95352 23.7885 2.57508 22.1343C0.872828 21.3138 0.0043335 20.6138 0.0043335 19.9538V13.3501C0.0043335 13.3501 24.3569 7.92357 28.2868 6.46549C32.2168 5.00741 33.576 4.96282 36.9153 6.22025C40.2547 7.47768 60.2648 11.1875 63.5694 12.4271V18.9372C63.5781 19.6239 62.8182 20.2927 61.0855 21.2246Z" fill="#A32422"/>
<path d="M61.0855 14.6298C57.6984 16.4134 40.1201 23.8822 36.3335 25.8664C32.5468 27.8506 30.5189 27.8462 27.5573 26.4015C24.5958 24.9568 5.95352 17.1848 2.57508 15.535C-0.803365 13.8852 -0.868502 12.7392 2.4448 11.4105C5.75811 10.0817 24.3569 2.59066 28.2868 1.13704C32.2168 -0.316575 33.576 -0.361165 36.9153 0.89626C40.2547 2.15369 57.7592 9.30139 61.0465 10.541C64.3337 11.7806 64.4857 12.8106 61.0855 14.6165V14.6298Z" fill="#DC382C"/>
<path d="M32.79 5.2527L36.9848 3.83922L35.8471 6.63052L40.1157 8.27142L34.6138 8.86L33.3762 11.9099L31.3874 8.50774L25.0256 7.91916L29.7763 6.16233L28.3476 3.46021L32.79 5.2527Z" fill="white"/>
<path d="M33.0549 23.0572L22.7719 18.6741L37.5016 16.351L33.0549 23.0572Z" fill="white"/>
<path d="M18.7986 9.96582C23.141 9.96582 26.6715 11.3704 26.6715 13.0871C26.6715 14.8038 23.1324 16.2084 18.7986 16.2084C14.4648 16.2084 10.9213 14.8038 10.9213 13.0871C10.9213 11.3704 14.4518 9.96582 18.7986 9.96582Z" fill="white"/>
<path d="M46.6338 9.10522L55.3491 12.6412L46.6425 16.1771L46.6338 9.10522Z" fill="#741113"/>
<path d="M46.6338 9.10522L46.6425 16.1771L45.6958 16.5561L36.9848 13.0202L46.6338 9.10522Z" fill="#AC2724"/>
<path d="M83.814 18.4646C84.5657 17.6224 85.4896 16.9616 86.5194 16.5294C87.5227 16.0876 88.5982 15.8441 89.6894 15.8115C90.0797 15.775 90.4732 15.8198 90.8463 15.9432C91.2193 16.0665 91.5643 16.2659 91.8606 16.5294C92.0802 16.7475 92.2526 17.0108 92.3663 17.302C92.48 17.5932 92.5327 17.9058 92.5207 18.2193C92.525 18.8497 92.288 19.4566 91.8606 19.9093C91.6542 20.146 91.4001 20.3337 91.1158 20.4592C90.8316 20.5847 90.5241 20.6451 90.2148 20.6361C87.5051 20.8813 83.7445 23.6548 83.7445 27.4226V35.9749C83.727 36.6097 83.4732 37.2135 83.0355 37.6622C82.5977 38.1109 82.0092 38.3703 81.3909 38.3872C81.0746 38.3986 80.7597 38.3378 80.4691 38.209C80.1784 38.0802 79.9193 37.8867 79.7104 37.6425C79.4903 37.4224 79.3149 37.1598 79.1941 36.8698C79.0734 36.5797 79.0097 36.268 79.0069 35.9526V18.1168C79.0095 17.8013 79.073 17.4895 79.1938 17.1994C79.3145 16.9094 79.4901 16.6467 79.7104 16.4268C80.2258 16.0449 80.8423 15.8334 81.4778 15.8204C82.0963 15.8329 82.6861 16.0905 83.124 16.5392C83.5618 16.988 83.8137 17.5932 83.827 18.2282L83.814 18.4646Z" fill="white"/>
<path d="M112.348 26.3124C112.351 26.8951 112.142 27.4579 111.762 27.8908C111.312 28.3201 110.73 28.5754 110.116 28.6132H96.2205C96.3517 29.7465 96.8888 30.7891 97.7273 31.5383C98.8015 32.7243 100.271 33.4518 101.844 33.576C102.64 33.7149 103.456 33.6903 104.243 33.5036C105.03 33.3168 105.773 32.9716 106.43 32.488C106.66 32.2493 106.936 32.0617 107.24 31.9367C107.544 31.8117 107.87 31.752 108.197 31.7612C108.478 31.7476 108.759 31.7945 109.022 31.899C109.284 32.0034 109.522 32.163 109.721 32.3676C109.907 32.5425 110.057 32.7533 110.163 32.9879C110.269 33.2225 110.329 33.4763 110.34 33.7348C110.35 33.9932 110.311 34.2513 110.224 34.4941C110.138 34.737 110.005 34.9599 109.834 35.15C109.799 35.1901 109.76 35.2258 109.721 35.2659C108.696 36.2406 107.494 36.9982 106.183 37.4956C104.872 37.9929 103.479 38.2201 102.083 38.1643C100.649 38.1963 99.2259 37.9109 97.9094 37.3277C96.5928 36.7445 95.414 35.8771 94.4531 34.7844C92.4615 32.6245 91.3305 29.7768 91.2831 26.8028C91.253 25.3221 91.5187 23.8507 92.0639 22.4794C92.6092 21.1082 93.4223 19.8663 94.4531 18.8302C95.3927 17.7792 96.539 16.9451 97.8161 16.3832C99.0933 15.8212 100.472 15.5443 101.861 15.5707C103.212 15.5178 104.559 15.7599 105.812 16.281C107.065 16.8022 108.196 17.5905 109.131 18.5939C111.124 20.5547 112.307 23.227 112.435 26.0582V26.2945L112.348 26.3124ZM101.883 19.9138C100.422 19.9393 99.0165 20.4972 97.9184 21.4878C96.9829 22.2952 96.324 23.3891 96.0381 24.609H108.384C108.038 23.3831 107.289 22.318 106.265 21.5948C105.028 20.5715 103.508 19.9767 101.922 19.8959" fill="white"/>
<path d="M134.473 35.7297C134.457 36.3645 134.204 36.9688 133.767 37.4183C133.33 37.8678 132.742 38.1284 132.124 38.1464C131.582 38.1242 131.061 37.9244 130.637 37.5761C130.214 37.2279 129.91 36.7496 129.77 36.2112C128.021 37.4975 125.916 38.1756 123.765 38.1464C122.36 38.1626 120.966 37.8816 119.672 37.3209C118.377 36.7601 117.209 35.9316 116.239 34.8869C115.224 33.8441 114.429 32.5984 113.903 31.2269C113.376 29.8555 113.129 28.3876 113.178 26.9143C113.159 23.9522 114.256 21.0973 116.239 18.9462C117.202 17.8832 118.366 17.0337 119.66 16.4502C120.954 15.8666 122.351 15.5612 123.765 15.5529C125.876 15.5242 127.939 16.2036 129.64 17.4881V9.04728C129.632 8.72978 129.691 8.41423 129.813 8.12245C129.935 7.83067 130.118 7.56962 130.348 7.35734C130.565 7.1281 130.824 6.9457 131.11 6.82087C131.397 6.69605 131.704 6.63133 132.015 6.63053C132.325 6.62212 132.632 6.68275 132.916 6.80824C133.2 6.93373 133.455 7.12108 133.661 7.35734C133.882 7.57705 134.058 7.83952 134.18 8.12958C134.301 8.41964 134.366 8.73155 134.369 9.04728V35.7297H134.473ZM123.899 33.3129C124.682 33.3295 125.458 33.1649 126.17 32.8314C126.881 32.498 127.511 32.0042 128.012 31.3866C129.137 30.1897 129.765 28.5912 129.765 26.9277C129.765 25.2642 129.137 23.6657 128.012 22.4687C127.495 21.8692 126.863 21.3861 126.155 21.05C125.447 20.7139 124.679 20.5319 123.899 20.5157C123.114 20.4878 122.333 20.6481 121.618 20.984C120.904 21.3199 120.275 21.8222 119.783 22.4509C118.658 23.6478 118.029 25.2464 118.029 26.9098C118.029 28.5733 118.658 30.1719 119.783 31.3688C120.293 31.9752 120.926 32.4613 121.636 32.7937C122.347 33.1261 123.119 33.2972 123.899 33.2951" fill="white"/>
<path d="M141.426 9.04728V10.0193C141.436 10.3605 141.377 10.7001 141.252 11.0165C141.127 11.3328 140.939 11.6189 140.7 11.8564C140.488 12.0772 140.229 12.2459 139.944 12.3501C139.659 12.4543 139.355 12.4913 139.055 12.4584C138.747 12.4691 138.44 12.4103 138.156 12.2863C137.873 12.1623 137.619 11.976 137.413 11.7405C137.18 11.5055 136.996 11.2232 136.874 10.9116C136.752 10.6 136.695 10.2658 136.705 9.93015V9.03836C136.707 8.72231 136.77 8.4098 136.892 8.11946C137.013 7.82912 137.191 7.5669 137.413 7.34842C137.626 7.12158 137.881 6.94051 138.163 6.81573C138.445 6.69095 138.748 6.62497 139.055 6.62161C139.364 6.61667 139.671 6.67976 139.955 6.80666C140.239 6.93355 140.493 7.12131 140.7 7.35733C140.933 7.56799 141.119 7.82841 141.243 8.12035C141.368 8.41228 141.428 8.72865 141.421 9.04728H141.426ZM137.457 16.4179C137.669 16.1896 137.925 16.0075 138.207 15.8826C138.49 15.7578 138.795 15.6926 139.102 15.6911C139.412 15.6806 139.72 15.7402 140.004 15.8659C140.289 15.9915 140.543 16.18 140.748 16.4179C140.971 16.6535 141.146 16.9328 141.262 17.2393C141.377 17.5457 141.432 17.873 141.421 18.2015V35.8634C141.44 36.1836 141.384 36.5036 141.259 36.7974C141.133 37.0912 140.942 37.3502 140.7 37.5534C140.487 37.7802 140.233 37.9613 139.951 38.0861C139.669 38.2108 139.366 38.2768 139.059 38.2802C138.75 38.2892 138.442 38.2288 138.158 38.1033C137.874 37.9778 137.62 37.7901 137.413 37.5534C137.191 37.3349 137.013 37.0727 136.892 36.7823C136.77 36.492 136.707 36.1795 136.705 35.8634V18.2193C136.697 17.888 136.756 17.5585 136.878 17.2516C136.999 16.9446 137.182 16.6669 137.413 16.4358" fill="white"/>
<path d="M158.105 18.1078C158.587 18.4486 158.924 18.9653 159.047 19.5525C159.142 20.1665 159.061 20.7956 158.813 21.3628C158.476 21.8533 157.972 22.1968 157.402 22.326C156.789 22.442 156.157 22.3127 155.634 21.9648C153.988 20.8813 152.703 20.2793 151.639 20.2793C150.699 20.2172 149.771 20.516 149.034 21.1176C148.565 21.4832 148.33 21.724 148.33 21.9648C148.298 22.1748 148.339 22.3899 148.447 22.5712C148.581 22.7198 148.74 22.8422 148.916 22.9324C149.875 23.5512 150.966 23.923 152.095 24.0159C153.557 24.2635 154.98 24.7134 156.325 25.3536C157.51 25.8622 158.501 26.7547 159.147 27.8952C159.567 28.5598 159.854 29.303 159.992 30.0821C160.131 30.8612 160.118 31.6607 159.954 32.4346C159.79 33.2084 159.478 33.9413 159.037 34.591C158.596 35.2407 158.035 35.7944 157.384 36.2201C155.739 37.4274 153.761 38.0618 151.739 38.0304C149.034 38.0304 146.45 36.9469 143.979 34.9091C143.53 34.5026 143.237 33.9442 143.154 33.3351C143.113 32.8834 143.203 32.4293 143.411 32.0292C143.619 31.6291 143.937 31.3004 144.325 31.084C144.713 30.8676 145.155 30.7728 145.595 30.8116C146.035 30.8503 146.455 31.0208 146.802 31.3019C148.1 32.5695 149.831 33.2629 151.622 33.2326C152.663 33.269 153.69 32.973 154.562 32.3854C155.031 31.9038 155.387 31.5426 155.387 31.177C155.387 30.8114 155.387 30.6954 155.269 30.575C155.269 30.4502 155.031 30.2139 154.679 30.0935C153.605 29.4119 152.401 28.9769 151.148 28.8182C149.752 28.6115 148.4 28.159 147.153 27.4805C146.011 26.9086 145.038 26.0363 144.331 24.9523C143.868 24.104 143.627 23.1469 143.632 22.1744C143.63 21.1937 143.865 20.2278 144.316 19.3632C144.767 18.4987 145.419 17.7625 146.215 17.2205C147.808 16.1056 149.694 15.5161 151.622 15.5305C153.602 15.6554 155.738 16.4937 158.088 18.0677" fill="white"/>
</g>
<defs>
<clipPath id="clip0_748:885">
<rect width="160.103" height="56" fill="white"/>
</clipPath>
</defs>
</svg>
