<svg width="25" height="20" viewBox="0 0 25 20" fill="none" xmlns="http://www.w3.org/2000/svg">
<path d="M24.6106 2.36749C23.7058 2.76964 22.7322 3.04091 21.7105 3.16231C22.7536 2.53784 23.5535 1.54868 23.9306 0.368686C22.955 0.947694 21.8749 1.36784 20.7244 1.59464C19.8037 0.613478 18.4913 0 17.039 0C14.2509 0 11.9903 2.26058 11.9903 5.04921C11.9903 5.44437 12.0348 5.82954 12.1212 6.19973C7.92476 5.98891 4.20392 3.97911 1.71354 0.924214C1.27891 1.66958 1.03012 2.53684 1.03012 3.46305C1.03012 5.21456 1.92137 6.76025 3.27621 7.66548C2.44892 7.639 1.67008 7.4117 0.989159 7.03352C0.988659 7.0545 0.988659 7.07598 0.988659 7.09746C0.988659 9.54338 2.72918 11.5836 5.03921 12.0483C4.61557 12.1632 4.16945 12.2251 3.70885 12.2251C3.38312 12.2251 3.06689 12.1936 2.75865 12.1342C3.40161 14.14 5.26602 15.6002 7.47514 15.6407C5.74711 16.995 3.57046 17.8024 1.20448 17.8024C0.797322 17.8024 0.395164 17.7784 0 17.7314C2.2351 19.1647 4.88884 20 7.73992 20C17.0275 20 22.1057 12.3065 22.1057 5.63421C22.1057 5.41539 22.1012 5.19708 22.0917 4.98026C23.0779 4.26987 23.9341 3.38012 24.6106 2.36749Z" fill="#BFC2C4"/>
</svg>
