<svg width="23" height="16" viewBox="0 0 23 16" fill="none" xmlns="http://www.w3.org/2000/svg">
<path d="M22.5195 2.49844C22.2551 1.51496 21.4758 0.740536 20.4861 0.477678C18.6923 -1.43051e-07 11.5 0 11.5 0C11.5 0 4.3077 -1.43051e-07 2.51388 0.477678C1.52443 0.740536 0.744986 1.51496 0.48053 2.49844C0 4.28094 0 8.00013 0 8.00013C0 8.00013 0 11.7192 0.48053 13.5016C0.744986 14.485 1.52443 15.2597 2.51388 15.5225C4.3077 16 11.5 16 11.5 16C11.5 16 18.6923 16 20.4861 15.5225C21.4758 15.2597 22.2551 14.485 22.5195 13.5016C23 11.7192 23 8.00013 23 8.00013C23 8.00013 23 4.28094 22.5195 2.49844ZM9.19988 11.4287V4.57147L15.1754 8.00013L9.19988 11.4287Z" fill="#BFC2C4"/>
</svg>
